<svg aria-hidden="true" style="position: absolute; width: 0; height: 0; overflow: hidden;" version="1.1" xmlns="http://www.w3.org/2000/svg" xmlns:xlink="http://www.w3.org/1999/xlink">
<defs>
<symbol id="add" viewBox="0 0 32 32">
<path fill="none" stroke-linejoin="round" stroke-linecap="round" stroke-miterlimit="4" stroke-width="1.6" d="M2 16h28"></path>
<path fill="none" stroke-linejoin="round" stroke-linecap="round" stroke-miterlimit="4" stroke-width="1.6" d="M16 30v-28"></path>
</symbol>
<symbol id="profile" viewBox="0 0 32 32" width="80px" height="80px">
<path fill="none" stroke="#f4f4f4" style="stroke: var(--color2, #f4f4f4)" stroke-linejoin="round" stroke-linecap="round" stroke-miterlimit="4" stroke-width="0.6857" d="M16.16 17.040c-0.093-0.013-0.213-0.013-0.32 0-2.347-0.080-4.213-2-4.213-4.36 0-2.413 1.947-4.373 4.373-4.373 2.413 0 4.373 1.96 4.373 4.373-0.013 2.36-1.867 4.28-4.213 4.36z"></path>
<path fill="none" stroke="#f4f4f4" style="stroke: var(--color2, #f4f4f4)" stroke-linejoin="round" stroke-linecap="round" stroke-miterlimit="4" stroke-width="0.6857" d="M24.987 25.84c-2.373 2.173-5.52 3.493-8.987 3.493s-6.613-1.32-8.987-3.493c0.133-1.253 0.933-2.48 2.36-3.44 3.653-2.427 9.627-2.427 13.253 0 1.427 0.96 2.227 2.187 2.36 3.44z"></path>
<path fill="none" stroke="#f4f4f4" style="stroke: var(--color2, #f4f4f4)" stroke-linejoin="round" stroke-linecap="round" stroke-miterlimit="4" stroke-width="0.6857" d="M16 29.333c7.364 0 13.333-5.97 13.333-13.333s-5.97-13.333-13.333-13.333c-7.364 0-13.333 5.97-13.333 13.333s5.97 13.333 13.333 13.333z"></path>
</symbol>
<symbol id="bff" viewBox="0 0 32 32">
<path d="M32 16.967l-0.014-0.462-1.114 0.036 0.091-0.104c0.195-0.234 0.279-0.471 0.273-0.779-0.003-0.214-0.052-0.404-0.142-0.575-0.203-0.385-0.531-0.615-0.979-0.674-0.144-0.018-0.289-0.010-0.43 0.026-0.492 0.124-0.811 0.44-0.945 0.934-0.034 0.125-0.049 0.255-0.042 0.384 0.001 0.028 0.003 0.056 0.006 0.084 0.030 0.289 0.145 0.517 0.302 0.654l0.064 0.050 0.067 0.045-0.371 0.012 0.015 0.474 3.218-0.105zM30.779 15.748c-0.002 0.049-0.009 0.097-0.019 0.144-0.045 0.207-0.164 0.388-0.334 0.506-0.159 0.11-0.351 0.162-0.53 0.148-0.173-0.015-0.349-0.094-0.485-0.222-0.15-0.142-0.243-0.34-0.259-0.557-0.007-0.098 0.003-0.197 0.029-0.292 0.089-0.32 0.34-0.55 0.663-0.603 0.054-0.009 0.108-0.012 0.162-0.010 0.047 0.002 0.095 0.009 0.142 0.020 0.326 0.079 0.565 0.342 0.62 0.69 0.009 0.059 0.013 0.117 0.010 0.177zM28.54 13.862l3.17-0.648-0.091-0.473-3.17 0.649 0.091 0.473zM30.87 11.939l0.507-0.152-0.129-0.459-0.507 0.152 0.129 0.459zM28.276 12.71l2.359-0.708-0.13-0.463-2.359 0.708 0.13 0.463zM28.963 8.768l1.015-0.513-0.204-0.43-2.889 1.46 0.202 0.426 0.326-0.165c-0.009 0.019-0.018 0.038-0.025 0.058-0.117 0.292-0.126 0.504-0.021 0.802 0.013 0.039 0.029 0.077 0.047 0.116 0.038 0.079 0.083 0.153 0.136 0.222 0.372 0.495 0.975 0.636 1.524 0.359l0.119-0.064c0.412-0.236 0.624-0.607 0.626-1.094 0.002-0.236-0.049-0.449-0.141-0.627-0.044-0.085-0.1-0.164-0.165-0.233-0.115-0.125-0.261-0.224-0.389-0.272l-0.082-0.025-0.082-0.020zM29.263 9.53c0.046 0.090 0.076 0.186 0.089 0.286 0.047 0.335-0.093 0.645-0.367 0.823-0.040 0.027-0.083 0.048-0.127 0.067s-0.089 0.032-0.135 0.042c-0.324 0.070-0.647-0.060-0.84-0.343-0.033-0.049-0.061-0.101-0.083-0.156-0.023-0.057-0.041-0.116-0.050-0.176-0.062-0.355 0.083-0.685 0.371-0.868 0.041-0.025 0.084-0.047 0.129-0.065 0.061-0.024 0.125-0.041 0.19-0.049 0.352-0.045 0.666 0.126 0.826 0.439zM26.833 5.905l0.306-0.32-1.117-1.139-0.284 0.297 0.76 0.775-2.051 0.41-0.225 0.235 1.251 1.276 0.295-0.309-0.823-0.84 1.888-0.386zM24.705 4.55c0.17-0.311 0.206-0.476 0.177-0.724-0.034-0.284-0.155-0.496-0.388-0.674-0.015-0.011-0.030-0.022-0.045-0.032-0.161-0.11-0.344-0.162-0.516-0.152l-0.095 0.010-0.094 0.017 0.109-0.168-0.388-0.267-1.356 2.1 0.389 0.267 0.721-1.117c0.025-0.039 0.051-0.076 0.079-0.112 0.281-0.359 0.573-0.425 0.876-0.234 0.159 0.099 0.232 0.217 0.249 0.4 0.011 0.117-0.021 0.257-0.119 0.443-0.019 0.036-0.039 0.071-0.061 0.104l-0.77 1.193 0.385 0.265 0.789-1.223c0.020-0.031 0.039-0.064 0.058-0.096zM22.039 3.142c0.11-0.312 0.085-0.663-0.091-1.012-0.16-0.316-0.377-0.51-0.678-0.619-0.027-0.010-0.054-0.018-0.081-0.026-0.307-0.093-0.601-0.072-0.86 0.049-0.341 0.16-0.568 0.414-0.679 0.726-0.016 0.044-0.029 0.089-0.041 0.135-0.142 0.553 0.028 1.056 0.498 1.413 0.072 0.054 0.15 0.1 0.232 0.136 0.133 0.059 0.285 0.092 0.454 0.098 0.324 0.009 0.61-0.090 0.83-0.278l0.084-0.079 0.081-0.083-0.484-0.186-0.059 0.038-0.058 0.035c-0.193 0.107-0.434 0.119-0.673 0.021-0.090-0.037-0.172-0.091-0.241-0.16-0.186-0.183-0.251-0.358-0.25-0.645 0-0.028 0.001-0.056 0.003-0.084l1.922 0.741 0.060-0.138c0.011-0.027 0.021-0.055 0.031-0.082zM21.646 2.699l-0.004 0.065-1.438-0.554 0.047-0.060 0.049-0.056c0.148-0.148 0.405-0.228 0.684-0.179 0.051 0.009 0.1 0.023 0.149 0.041 0.155 0.059 0.288 0.169 0.374 0.309s0.129 0.271 0.139 0.369l0.001 0.065zM19.366 12.125c-0.255 0-0.504 0.027-0.748 0.068v9.618c0.244 0.041 0.493 0.068 0.748 0.068 0.919 0 1.774-0.281 2.497-0.759v-1.974h1.696c0.305-0.648 0.481-1.374 0.481-2.144 0-0.135-0.009-0.268-0.019-0.4h-2.157v-1.85h1.647c-0.78-1.56-2.341-2.627-4.145-2.627zM19.353 0.961l-0.387-0.074 0.143-0.799-0.459-0.088-0.144 0.802-0.311-0.060-0.066 0.369 0.311 0.059-0.38 2.122 0.459 0.088 0.38-2.122 0.387 0.074 0.067-0.372zM18.486 29.144c-0.305 0.1-0.538 0.286-0.688 0.535-0.197 0.329-0.249 0.67-0.173 0.994 0.011 0.046 0.024 0.090 0.039 0.135 0.18 0.541 0.593 0.862 1.176 0.888 0.089 0.004 0.178-0.003 0.266-0.021 0.142-0.028 0.286-0.087 0.43-0.18 0.274-0.178 0.458-0.426 0.54-0.708l0.028-0.114 0.022-0.116-0.502 0.123-0.028 0.066-0.030 0.063c-0.103 0.2-0.296 0.348-0.548 0.404-0.094 0.021-0.192 0.023-0.287 0.006-0.253-0.045-0.402-0.153-0.555-0.392-0.015-0.023-0.029-0.047-0.042-0.072l1.996-0.49-0.025-0.149c-0.006-0.029-0.012-0.057-0.019-0.086-0.077-0.322-0.287-0.6-0.621-0.788-0.303-0.171-0.588-0.207-0.897-0.124-0.027 0.008-0.054 0.015-0.082 0.025zM18.547 29.619c0.047-0.022 0.096-0.039 0.146-0.051 0.161-0.040 0.33-0.026 0.477 0.042s0.253 0.151 0.314 0.227l0.036 0.054 0.032 0.057-1.494 0.366 0.006-0.077 0.011-0.075c0.043-0.208 0.214-0.422 0.471-0.542zM17.484 1.908c0.002-0.029 0.002-0.059 0.003-0.088 0.003-0.332-0.133-0.654-0.411-0.923-0.252-0.243-0.519-0.352-0.839-0.351-0.028 0-0.056 0.001-0.085 0.003-0.32 0.018-0.59 0.138-0.796 0.341-0.27 0.268-0.403 0.585-0.407 0.918-0.001 0.047 0.001 0.094 0.005 0.141 0.044 0.57 0.366 0.987 0.924 1.163 0.085 0.027 0.174 0.043 0.262 0.049 0.145 0.010 0.298-0.010 0.46-0.063 0.308-0.102 0.546-0.294 0.694-0.547l0.054-0.103 0.050-0.106-0.516-0.010-0.043 0.056-0.044 0.053c-0.148 0.167-0.371 0.261-0.628 0.25-0.096-0.004-0.191-0.027-0.279-0.068-0.234-0.109-0.352-0.252-0.442-0.523-0.009-0.027-0.017-0.053-0.024-0.081l2.051 0.040 0.012-0.151zM16.991 1.6l-1.535-0.030 0.025-0.073 0.028-0.070c0.092-0.19 0.309-0.354 0.587-0.403 0.051-0.009 0.102-0.013 0.153-0.012 0.165 0.002 0.326 0.060 0.452 0.163s0.209 0.212 0.249 0.301l0.022 0.061 0.018 0.063zM17.405 14.834c-0.835-0.811-1.95-1.31-3.181-1.31-2.581 0-4.674 2.184-4.674 4.877 0 2.232 1.439 4.11 3.401 4.689v-3.862h3.53v-2.544h-3.53v-1.85h4.454zM14.055 2.856c0.123-0.215 0.182-0.485 0.157-0.786-0.005-0.064-0.015-0.127-0.030-0.189-0.021-0.088-0.051-0.173-0.090-0.254-0.204-0.424-0.523-0.665-0.91-0.734-0.176-0.030-0.322-0.026-0.49 0.013-0.348 0.082-0.579 0.272-0.69 0.512l-0.043 0.104-0.084-0.385-0.459 0.106 0.705 3.248 0.452-0.105-0.245-1.13 0.097 0.066 0.1 0.060c0.204 0.108 0.449 0.14 0.72 0.080 0.351-0.077 0.623-0.279 0.812-0.607zM13.759 2.216c-0.012 0.347-0.21 0.633-0.525 0.755-0.053 0.021-0.109 0.036-0.165 0.045s-0.116 0.012-0.174 0.009c-0.347-0.020-0.614-0.232-0.722-0.56-0.015-0.047-0.026-0.095-0.034-0.144-0.007-0.048-0.010-0.096-0.009-0.144 0.004-0.349 0.197-0.637 0.512-0.767 0.055-0.023 0.112-0.039 0.17-0.048s0.117-0.013 0.176-0.010c0.347 0.019 0.622 0.235 0.73 0.569 0.015 0.048 0.027 0.097 0.034 0.146s0.010 0.099 0.008 0.149zM10.873 4.167l0.398-0.227-0.724-1.357c-0.024-0.045-0.061-0.098-0.154-0.209-0.321-0.381-0.717-0.468-1.154-0.231-0.248 0.135-0.394 0.321-0.473 0.597l-0.032 0.125c-0.018-0.009-0.036-0.016-0.054-0.023-0.227-0.091-0.358-0.101-0.575-0.037-0.038 0.012-0.075 0.025-0.112 0.040l-0.091 0.047c-0.212 0.118-0.312 0.246-0.398 0.508-0.007 0.024-0.015 0.048-0.021 0.073l-0.108-0.203-0.382 0.217 1.179 2.208 0.398-0.227-0.641-1.236c-0.016-0.031-0.031-0.062-0.044-0.095-0.092-0.231-0.103-0.359-0.066-0.484 0.046-0.151 0.14-0.273 0.241-0.332 0.071-0.041 0.17-0.066 0.274-0.062 0.196 0.006 0.323 0.086 0.47 0.309 0.017 0.026 0.033 0.053 0.047 0.081l0.681 1.277 0.412-0.235-0.629-1.179c-0.010-0.020-0.020-0.040-0.030-0.060-0.216-0.463-0.13-0.778 0.151-0.909 0.033-0.015 0.068-0.027 0.104-0.035 0.246-0.056 0.439 0.043 0.645 0.371 0.014 0.022 0.026 0.043 0.038 0.066l0.652 1.221zM7.167 5.678c-0.062-0.154-0.153-0.293-0.267-0.411-0.196-0.203-0.468-0.339-0.761-0.378-0.235-0.031-0.474 0.008-0.689 0.112-0.13 0.062-0.248 0.146-0.351 0.248-0.063 0.064-0.119 0.135-0.168 0.21-0.249 0.387-0.289 0.856-0.114 1.271 0.064 0.152 0.155 0.29 0.268 0.408 0.057 0.058 0.118 0.11 0.184 0.156 0.44 0.304 0.986 0.305 1.427-0.001 0.072-0.050 0.138-0.107 0.199-0.171 0.060-0.063 0.114-0.131 0.161-0.205 0.24-0.379 0.279-0.833 0.11-1.24zM6.621 6.74c-0.034 0.041-0.071 0.078-0.111 0.112-0.3 0.253-0.69 0.271-1.008 0.045-0.045-0.032-0.087-0.068-0.124-0.109-0.034-0.037-0.065-0.077-0.092-0.12-0.185-0.293-0.179-0.663 0.021-0.96 0.033-0.049 0.071-0.095 0.113-0.136 0.039-0.037 0.082-0.070 0.127-0.1 0.185-0.12 0.408-0.16 0.621-0.112 0.169 0.040 0.321 0.131 0.428 0.252 0.069 0.079 0.122 0.171 0.157 0.271 0.112 0.312 0.055 0.635-0.131 0.857zM5.918 8.137l-1.631 0.173-0.524-1.396-0.3 0.477 0.511 1.402-1.64-1.1-0.254 0.404 2.713 1.82 0.254-0.404-1.038-0.697 1.588-0.17 0.321-0.51zM2.582 12.532c-0.778 0.409-1.432 1.032-1.888 1.802s-0.696 1.654-0.695 2.555c0 2.694 2.093 4.877 4.674 4.877 1.688 0 3.163-0.937 3.984-2.337-0.377-0.64-1.013-1.083-1.804-1.229v-0.034c1.149-0.274 1.904-1.319 1.904-2.552 0-0.959-0.443-1.918-1.198-2.483-0.706-0.531-1.575-0.599-2.429-0.599h-2.549zM2.956 19.048h1.362c0.312 0 0.706 0 1.001 0.154 0.328 0.171 0.542 0.531 0.542 0.925 0 0.325-0.164 0.634-0.41 0.822-0.279 0.24-0.657 0.223-1.001 0.223h-1.493v-2.123zM2.956 14.887h1.346c0.657 0 1.346 0.12 1.346 0.993 0 0.274-0.115 0.565-0.328 0.771-0.246 0.24-0.64 0.223-0.968 0.223h-1.395v-1.986zM14.323 28.619l-0.020 3.321 0.459 0.003 0.002-0.375c0.013 0.016 0.025 0.033 0.039 0.048 0.201 0.239 0.381 0.341 0.686 0.377 0.040 0.005 0.080 0.007 0.121 0.007 0.085 0 0.17-0.009 0.253-0.027 0.595-0.123 0.985-0.618 0.99-1.249l-0.003-0.139c-0.021-0.486-0.249-0.847-0.67-1.066-0.204-0.106-0.411-0.154-0.606-0.149-0.094 0.003-0.186 0.019-0.276 0.049-0.16 0.051-0.31 0.142-0.409 0.238l-0.058 0.064-0.054 0.067 0.007-1.167-0.463-0.003zM14.78 30.763c-0.003-0.049-0.003-0.098 0.001-0.147 0.006-0.067 0.020-0.134 0.042-0.197 0.118-0.345 0.406-0.559 0.749-0.568 0.098-0.002 0.195 0.013 0.287 0.045 0.311 0.106 0.518 0.373 0.55 0.707 0.005 0.049 0.005 0.098 0.002 0.147s-0.012 0.097-0.024 0.143c-0.083 0.331-0.34 0.571-0.672 0.624-0.057 0.009-0.115 0.011-0.173 0.007-0.059-0.003-0.118-0.014-0.175-0.032-0.336-0.101-0.557-0.382-0.588-0.73zM20.883 28.422l-0.412 0.189 0.995 2.311 0.433-0.199-0.569-1.321c-0.007-0.017-0.013-0.033-0.020-0.050-0.129-0.384-0.038-0.625 0.284-0.79 0.016-0.008 0.031-0.015 0.047-0.023l-0.193-0.447c-0.024 0.015-0.048 0.031-0.071 0.048-0.211 0.152-0.298 0.255-0.346 0.374l-0.025 0.076-0.018 0.079-0.107-0.247zM22.451 27.629l-0.392 0.263 1.332 2.117 0.392-0.263-0.708-1.126c-0.024-0.039-0.047-0.079-0.069-0.119-0.208-0.409-0.151-0.711 0.138-0.924 0.151-0.112 0.285-0.135 0.454-0.078 0.109 0.037 0.22 0.122 0.347 0.288 0.024 0.032 0.047 0.065 0.069 0.099l0.756 1.203 0.388-0.261-0.775-1.232c-0.020-0.031-0.041-0.062-0.063-0.093-0.21-0.283-0.342-0.383-0.574-0.454-0.266-0.080-0.503-0.049-0.753 0.101-0.016 0.010-0.032 0.020-0.047 0.030-0.162 0.11-0.28 0.263-0.339 0.429l-0.029 0.094-0.022 0.096-0.107-0.17zM25.333 24.125c-0.145 0.592 0.036 1.028 0.755 1.609 0.073 0.058 0.146 0.116 0.219 0.174 0.078 0.062 0.156 0.122 0.234 0.182l0.097 0.075 0.378 0.293 0.375 0.296 0.277-0.378-0.286-0.224 0.095-0.004 0.095-0.012c0.223-0.038 0.45-0.176 0.63-0.406 0.129-0.166 0.21-0.342 0.247-0.531 0.085-0.439-0.024-0.831-0.337-1.172-0.049-0.054-0.103-0.103-0.161-0.146-0.060-0.046-0.125-0.086-0.193-0.119-0.45-0.221-0.887-0.186-1.287 0.094-0.123 0.086-0.228 0.196-0.311 0.323-0.177 0.27-0.216 0.465-0.174 0.783 0.004 0.035 0.010 0.069 0.018 0.103-0.021-0.025-0.041-0.051-0.061-0.079-0.193-0.274-0.238-0.442-0.192-0.696 0.024-0.132 0.085-0.259 0.186-0.382 0.144-0.173 0.319-0.27 0.484-0.29l0.075-0.004 0.076 0.002 0.337-0.46c-0.025-0.005-0.049-0.009-0.074-0.012-0.512-0.080-0.888 0.053-1.209 0.427-0.023 0.026-0.044 0.052-0.064 0.079-0.114 0.151-0.189 0.308-0.23 0.476zM26.494 24.496c0.025-0.042 0.054-0.082 0.087-0.12 0.033-0.039 0.071-0.075 0.111-0.108 0.262-0.21 0.598-0.238 0.892-0.072 0.047 0.026 0.091 0.057 0.131 0.092 0.077 0.068 0.142 0.15 0.19 0.243 0.13 0.251 0.13 0.547-0.006 0.805-0.027 0.050-0.058 0.098-0.094 0.142-0.032 0.039-0.067 0.074-0.105 0.107-0.161 0.136-0.367 0.203-0.575 0.187-0.177-0.015-0.346-0.088-0.472-0.2-0.087-0.076-0.159-0.176-0.21-0.291-0.112-0.257-0.094-0.541 0.050-0.784zM27.241 22.597l1.3 0.597c0.033 0.015 0.067 0.029 0.101 0.042 0.326 0.12 0.489 0.13 0.721 0.058 0.266-0.083 0.448-0.242 0.578-0.508 0.009-0.017 0.016-0.035 0.023-0.052 0.078-0.183 0.096-0.378 0.058-0.55l-0.025-0.095-0.033-0.093 0.179 0.082 0.19-0.441-2.234-1.026-0.19 0.441 1.188 0.545c0.041 0.019 0.081 0.039 0.121 0.062 0.39 0.226 0.502 0.511 0.372 0.852-0.068 0.179-0.168 0.273-0.339 0.321-0.11 0.031-0.249 0.022-0.443-0.046-0.037-0.013-0.074-0.028-0.11-0.044l-1.269-0.583-0.188 0.437zM28.296 19.92l2.404 0.524 0.097-0.472-1.366-0.298c-0.397-0.086-0.584-0.291-0.593-0.635-0.001-0.046 0.004-0.093 0.014-0.138 0.010-0.044 0.025-0.087 0.046-0.127 0.12-0.237 0.305-0.331 0.598-0.307 0.071 0.006 0.141 0.016 0.21 0.030l1.332 0.29 0.096-0.472-1.219-0.266c-0.115-0.025-0.231-0.044-0.348-0.057-0.585-0.069-0.958 0.17-1.103 0.701-0.007 0.024-0.013 0.048-0.018 0.072-0.057 0.27-0.022 0.464 0.108 0.681 0.009 0.016 0.019 0.032 0.029 0.047l-0.193-0.042-0.096 0.468z"></path>
</symbol>
</defs>
</svg>
